<mxfile host="app.diagrams.net" modified="2024-07-29T06:06:20.974Z" agent="Mozilla/5.0 (Windows NT 10.0; Win64; x64) AppleWebKit/537.36 (KHTML, like Gecko) Chrome/127.0.0.0 Safari/537.36" etag="MuPf3qj_xvKNXES0LdC2" version="24.7.1" type="device">
  <diagram name="Page-1" id="eHK5hdSqxZjHsjmZL91R">
    <mxGraphModel dx="1434" dy="744" grid="1" gridSize="10" guides="1" tooltips="1" connect="1" arrows="1" fold="1" page="1" pageScale="1" pageWidth="850" pageHeight="1100" math="0" shadow="0">
      <root>
        <mxCell id="0" />
        <mxCell id="1" parent="0" />
        <mxCell id="YjcfGOqxXFkQnm6U6_Sq-1" value="Room" style="swimlane;fontStyle=1;align=center;verticalAlign=top;childLayout=stackLayout;horizontal=1;startSize=26;horizontalStack=0;resizeParent=1;resizeParentMax=0;resizeLast=0;collapsible=1;marginBottom=0;whiteSpace=wrap;html=1;" parent="1" vertex="1">
          <mxGeometry x="640" y="380" width="180" height="406" as="geometry" />
        </mxCell>
        <mxCell id="YjcfGOqxXFkQnm6U6_Sq-2" value="- basePrice: double" style="text;strokeColor=none;fillColor=none;align=left;verticalAlign=top;spacingLeft=4;spacingRight=4;overflow=hidden;rotatable=0;points=[[0,0.5],[1,0.5]];portConstraint=eastwest;whiteSpace=wrap;html=1;" parent="YjcfGOqxXFkQnm6U6_Sq-1" vertex="1">
          <mxGeometry y="26" width="180" height="26" as="geometry" />
        </mxCell>
        <mxCell id="YjcfGOqxXFkQnm6U6_Sq-7" value="- number: int = 0" style="text;strokeColor=none;fillColor=none;align=left;verticalAlign=top;spacingLeft=4;spacingRight=4;overflow=hidden;rotatable=0;points=[[0,0.5],[1,0.5]];portConstraint=eastwest;whiteSpace=wrap;html=1;" parent="YjcfGOqxXFkQnm6U6_Sq-1" vertex="1">
          <mxGeometry y="52" width="180" height="26" as="geometry" />
        </mxCell>
        <mxCell id="enaOvLACo1BJ830dcgLM-54" value="- availability : boolean" style="text;strokeColor=none;fillColor=none;align=left;verticalAlign=top;spacingLeft=4;spacingRight=4;overflow=hidden;rotatable=0;points=[[0,0.5],[1,0.5]];portConstraint=eastwest;whiteSpace=wrap;html=1;" parent="YjcfGOqxXFkQnm6U6_Sq-1" vertex="1">
          <mxGeometry y="78" width="180" height="26" as="geometry" />
        </mxCell>
        <mxCell id="YjcfGOqxXFkQnm6U6_Sq-3" value="" style="line;strokeWidth=1;fillColor=none;align=left;verticalAlign=middle;spacingTop=-1;spacingLeft=3;spacingRight=3;rotatable=0;labelPosition=right;points=[];portConstraint=eastwest;strokeColor=inherit;" parent="YjcfGOqxXFkQnm6U6_Sq-1" vertex="1">
          <mxGeometry y="104" width="180" height="8" as="geometry" />
        </mxCell>
        <mxCell id="YjcfGOqxXFkQnm6U6_Sq-4" value="+ Room(roomNumber : int)" style="text;strokeColor=none;fillColor=none;align=left;verticalAlign=top;spacingLeft=4;spacingRight=4;overflow=hidden;rotatable=0;points=[[0,0.5],[1,0.5]];portConstraint=eastwest;whiteSpace=wrap;html=1;" parent="YjcfGOqxXFkQnm6U6_Sq-1" vertex="1">
          <mxGeometry y="112" width="180" height="24" as="geometry" />
        </mxCell>
        <mxCell id="YjcfGOqxXFkQnm6U6_Sq-28" value="+ getRoomNumber(): int" style="text;strokeColor=none;fillColor=none;align=left;verticalAlign=top;spacingLeft=4;spacingRight=4;overflow=hidden;rotatable=0;points=[[0,0.5],[1,0.5]];portConstraint=eastwest;whiteSpace=wrap;html=1;" parent="YjcfGOqxXFkQnm6U6_Sq-1" vertex="1">
          <mxGeometry y="136" width="180" height="26" as="geometry" />
        </mxCell>
        <mxCell id="enaOvLACo1BJ830dcgLM-46" value="+ setRoomNumber(number : int) : void" style="text;strokeColor=none;fillColor=none;align=left;verticalAlign=top;spacingLeft=4;spacingRight=4;overflow=hidden;rotatable=0;points=[[0,0.5],[1,0.5]];portConstraint=eastwest;whiteSpace=wrap;html=1;" parent="YjcfGOqxXFkQnm6U6_Sq-1" vertex="1">
          <mxGeometry y="162" width="180" height="38" as="geometry" />
        </mxCell>
        <mxCell id="YjcfGOqxXFkQnm6U6_Sq-29" value="+ getBasePrice(): double" style="text;strokeColor=none;fillColor=none;align=left;verticalAlign=top;spacingLeft=4;spacingRight=4;overflow=hidden;rotatable=0;points=[[0,0.5],[1,0.5]];portConstraint=eastwest;whiteSpace=wrap;html=1;" parent="YjcfGOqxXFkQnm6U6_Sq-1" vertex="1">
          <mxGeometry y="200" width="180" height="26" as="geometry" />
        </mxCell>
        <mxCell id="fT-wLqckhPg0DEHDg7Vk-12" value="+ setBasePrice(newPrice: double) : boolean" style="text;strokeColor=none;fillColor=none;align=left;verticalAlign=top;spacingLeft=4;spacingRight=4;overflow=hidden;rotatable=0;points=[[0,0.5],[1,0.5]];portConstraint=eastwest;whiteSpace=wrap;html=1;" parent="YjcfGOqxXFkQnm6U6_Sq-1" vertex="1">
          <mxGeometry y="226" width="180" height="42" as="geometry" />
        </mxCell>
        <mxCell id="enaOvLACo1BJ830dcgLM-55" value="+ getAvailability() : boolean" style="text;strokeColor=none;fillColor=none;align=left;verticalAlign=top;spacingLeft=4;spacingRight=4;overflow=hidden;rotatable=0;points=[[0,0.5],[1,0.5]];portConstraint=eastwest;whiteSpace=wrap;html=1;" parent="YjcfGOqxXFkQnm6U6_Sq-1" vertex="1">
          <mxGeometry y="268" width="180" height="26" as="geometry" />
        </mxCell>
        <mxCell id="enaOvLACo1BJ830dcgLM-56" value="+ setAvailability(status : boolean) : void" style="text;strokeColor=none;fillColor=none;align=left;verticalAlign=top;spacingLeft=4;spacingRight=4;overflow=hidden;rotatable=0;points=[[0,0.5],[1,0.5]];portConstraint=eastwest;whiteSpace=wrap;html=1;" parent="YjcfGOqxXFkQnm6U6_Sq-1" vertex="1">
          <mxGeometry y="294" width="180" height="46" as="geometry" />
        </mxCell>
        <mxCell id="xqPwADUR2X_ACAqCUkij-6" value="+ setBasePrice(newPrice : double): void" style="text;strokeColor=none;fillColor=none;align=left;verticalAlign=top;spacingLeft=4;spacingRight=4;overflow=hidden;rotatable=0;points=[[0,0.5],[1,0.5]];portConstraint=eastwest;whiteSpace=wrap;html=1;" parent="YjcfGOqxXFkQnm6U6_Sq-1" vertex="1">
          <mxGeometry y="340" width="180" height="40" as="geometry" />
        </mxCell>
        <mxCell id="xqPwADUR2X_ACAqCUkij-5" value="+ getRoomInfo(): String" style="text;strokeColor=none;fillColor=none;align=left;verticalAlign=top;spacingLeft=4;spacingRight=4;overflow=hidden;rotatable=0;points=[[0,0.5],[1,0.5]];portConstraint=eastwest;whiteSpace=wrap;html=1;" parent="YjcfGOqxXFkQnm6U6_Sq-1" vertex="1">
          <mxGeometry y="380" width="180" height="26" as="geometry" />
        </mxCell>
        <mxCell id="Av6QTl00VI_5EAd0nDwh-2" style="edgeStyle=orthogonalEdgeStyle;rounded=0;orthogonalLoop=1;jettySize=auto;html=1;exitX=0.5;exitY=0;exitDx=0;exitDy=0;entryX=1;entryY=0.5;entryDx=0;entryDy=0;endArrow=block;endFill=1;" parent="1" source="enaOvLACo1BJ830dcgLM-1" target="js2o4f2XwU7Y7SOhlIUR-4" edge="1">
          <mxGeometry relative="1" as="geometry" />
        </mxCell>
        <mxCell id="enaOvLACo1BJ830dcgLM-1" value="Reservation" style="swimlane;fontStyle=1;align=center;verticalAlign=top;childLayout=stackLayout;horizontal=1;startSize=26;horizontalStack=0;resizeParent=1;resizeParentMax=0;resizeLast=0;collapsible=1;marginBottom=0;whiteSpace=wrap;html=1;" parent="1" vertex="1">
          <mxGeometry x="335" y="500" width="180" height="528" as="geometry" />
        </mxCell>
        <mxCell id="enaOvLACo1BJ830dcgLM-2" value="- guestName: String" style="text;strokeColor=none;fillColor=none;align=left;verticalAlign=top;spacingLeft=4;spacingRight=4;overflow=hidden;rotatable=0;points=[[0,0.5],[1,0.5]];portConstraint=eastwest;whiteSpace=wrap;html=1;" parent="enaOvLACo1BJ830dcgLM-1" vertex="1">
          <mxGeometry y="26" width="180" height="26" as="geometry" />
        </mxCell>
        <mxCell id="enaOvLACo1BJ830dcgLM-6" value="- checkInDate: Calendar" style="text;strokeColor=none;fillColor=none;align=left;verticalAlign=top;spacingLeft=4;spacingRight=4;overflow=hidden;rotatable=0;points=[[0,0.5],[1,0.5]];portConstraint=eastwest;whiteSpace=wrap;html=1;" parent="enaOvLACo1BJ830dcgLM-1" vertex="1">
          <mxGeometry y="52" width="180" height="26" as="geometry" />
        </mxCell>
        <mxCell id="enaOvLACo1BJ830dcgLM-7" value="- checkOutDate: Calendar" style="text;strokeColor=none;fillColor=none;align=left;verticalAlign=top;spacingLeft=4;spacingRight=4;overflow=hidden;rotatable=0;points=[[0,0.5],[1,0.5]];portConstraint=eastwest;whiteSpace=wrap;html=1;" parent="enaOvLACo1BJ830dcgLM-1" vertex="1">
          <mxGeometry y="78" width="180" height="26" as="geometry" />
        </mxCell>
        <mxCell id="kVpQTIHCHsoOi_atrk0u-2" value="- chosenRoom : Room" style="text;strokeColor=none;fillColor=none;align=left;verticalAlign=top;spacingLeft=4;spacingRight=4;overflow=hidden;rotatable=0;points=[[0,0.5],[1,0.5]];portConstraint=eastwest;whiteSpace=wrap;html=1;" parent="enaOvLACo1BJ830dcgLM-1" vertex="1">
          <mxGeometry y="104" width="180" height="26" as="geometry" />
        </mxCell>
        <mxCell id="TzPAuGzWRh46qyOCeVTI-10" value="- discountTag: DiscountTag" style="text;strokeColor=none;fillColor=none;align=left;verticalAlign=top;spacingLeft=4;spacingRight=4;overflow=hidden;rotatable=0;points=[[0,0.5],[1,0.5]];portConstraint=eastwest;whiteSpace=wrap;html=1;" parent="enaOvLACo1BJ830dcgLM-1" vertex="1">
          <mxGeometry y="130" width="180" height="26" as="geometry" />
        </mxCell>
        <mxCell id="Av6QTl00VI_5EAd0nDwh-4" value="- totalPrice : double" style="text;strokeColor=none;fillColor=none;align=left;verticalAlign=top;spacingLeft=4;spacingRight=4;overflow=hidden;rotatable=0;points=[[0,0.5],[1,0.5]];portConstraint=eastwest;whiteSpace=wrap;html=1;" parent="enaOvLACo1BJ830dcgLM-1" vertex="1">
          <mxGeometry y="156" width="180" height="26" as="geometry" />
        </mxCell>
        <mxCell id="enaOvLACo1BJ830dcgLM-3" value="" style="line;strokeWidth=1;fillColor=none;align=left;verticalAlign=middle;spacingTop=-1;spacingLeft=3;spacingRight=3;rotatable=0;labelPosition=right;points=[];portConstraint=eastwest;strokeColor=inherit;" parent="enaOvLACo1BJ830dcgLM-1" vertex="1">
          <mxGeometry y="182" width="180" height="8" as="geometry" />
        </mxCell>
        <mxCell id="enaOvLACo1BJ830dcgLM-23" value="+ Reservation(guestName : String, in_date : int, in_month : int, in_year : int, out_date : int, out_month : int, out_year : int, chosenRoom : Room, discountTag : DiscountTag)" style="text;strokeColor=none;fillColor=none;align=left;verticalAlign=top;spacingLeft=4;spacingRight=4;overflow=hidden;rotatable=0;points=[[0,0.5],[1,0.5]];portConstraint=eastwest;whiteSpace=wrap;html=1;" parent="enaOvLACo1BJ830dcgLM-1" vertex="1">
          <mxGeometry y="190" width="180" height="96" as="geometry" />
        </mxCell>
        <mxCell id="enaOvLACo1BJ830dcgLM-50" value="+ getGuestName() : String" style="text;strokeColor=none;fillColor=none;align=left;verticalAlign=top;spacingLeft=4;spacingRight=4;overflow=hidden;rotatable=0;points=[[0,0.5],[1,0.5]];portConstraint=eastwest;whiteSpace=wrap;html=1;" parent="enaOvLACo1BJ830dcgLM-1" vertex="1">
          <mxGeometry y="286" width="180" height="26" as="geometry" />
        </mxCell>
        <mxCell id="enaOvLACo1BJ830dcgLM-4" value="+ getTotalPrice() : double" style="text;strokeColor=none;fillColor=none;align=left;verticalAlign=top;spacingLeft=4;spacingRight=4;overflow=hidden;rotatable=0;points=[[0,0.5],[1,0.5]];portConstraint=eastwest;whiteSpace=wrap;html=1;" parent="enaOvLACo1BJ830dcgLM-1" vertex="1">
          <mxGeometry y="312" width="180" height="30" as="geometry" />
        </mxCell>
        <mxCell id="Av6QTl00VI_5EAd0nDwh-3" value="+ getDiscountTag() : DiscountTag" style="text;strokeColor=none;fillColor=none;align=left;verticalAlign=top;spacingLeft=4;spacingRight=4;overflow=hidden;rotatable=0;points=[[0,0.5],[1,0.5]];portConstraint=eastwest;whiteSpace=wrap;html=1;" parent="enaOvLACo1BJ830dcgLM-1" vertex="1">
          <mxGeometry y="342" width="180" height="40" as="geometry" />
        </mxCell>
        <mxCell id="enaOvLACo1BJ830dcgLM-45" value="+ getcheckInDate() : Calendar" style="text;strokeColor=none;fillColor=none;align=left;verticalAlign=top;spacingLeft=4;spacingRight=4;overflow=hidden;rotatable=0;points=[[0,0.5],[1,0.5]];portConstraint=eastwest;whiteSpace=wrap;html=1;" parent="enaOvLACo1BJ830dcgLM-1" vertex="1">
          <mxGeometry y="382" width="180" height="26" as="geometry" />
        </mxCell>
        <mxCell id="enaOvLACo1BJ830dcgLM-44" value="+ getcheckOutDate() : Calendar" style="text;strokeColor=none;fillColor=none;align=left;verticalAlign=top;spacingLeft=4;spacingRight=4;overflow=hidden;rotatable=0;points=[[0,0.5],[1,0.5]];portConstraint=eastwest;whiteSpace=wrap;html=1;" parent="enaOvLACo1BJ830dcgLM-1" vertex="1">
          <mxGeometry y="408" width="180" height="26" as="geometry" />
        </mxCell>
        <mxCell id="kVpQTIHCHsoOi_atrk0u-3" value="+ getChosenRoom() : Room" style="text;strokeColor=none;fillColor=none;align=left;verticalAlign=top;spacingLeft=4;spacingRight=4;overflow=hidden;rotatable=0;points=[[0,0.5],[1,0.5]];portConstraint=eastwest;whiteSpace=wrap;html=1;" parent="enaOvLACo1BJ830dcgLM-1" vertex="1">
          <mxGeometry y="434" width="180" height="26" as="geometry" />
        </mxCell>
        <mxCell id="JdBaqJGjskKO-6t4WOm8-3" value="+ getReservationInfo() : String" style="text;strokeColor=none;fillColor=none;align=left;verticalAlign=top;spacingLeft=4;spacingRight=4;overflow=hidden;rotatable=0;points=[[0,0.5],[1,0.5]];portConstraint=eastwest;whiteSpace=wrap;html=1;" parent="enaOvLACo1BJ830dcgLM-1" vertex="1">
          <mxGeometry y="460" width="180" height="26" as="geometry" />
        </mxCell>
        <mxCell id="fT-wLqckhPg0DEHDg7Vk-1" value="+ breakdown(monthDateList : monthDate[]) : String" style="text;strokeColor=none;fillColor=none;align=left;verticalAlign=top;spacingLeft=4;spacingRight=4;overflow=hidden;rotatable=0;points=[[0,0.5],[1,0.5]];portConstraint=eastwest;whiteSpace=wrap;html=1;" parent="enaOvLACo1BJ830dcgLM-1" vertex="1">
          <mxGeometry y="486" width="180" height="42" as="geometry" />
        </mxCell>
        <mxCell id="enaOvLACo1BJ830dcgLM-8" value="Hotel" style="swimlane;fontStyle=1;align=center;verticalAlign=top;childLayout=stackLayout;horizontal=1;startSize=26;horizontalStack=0;resizeParent=1;resizeParentMax=0;resizeLast=0;collapsible=1;marginBottom=0;whiteSpace=wrap;html=1;" parent="1" vertex="1">
          <mxGeometry x="10" y="380" width="195" height="516" as="geometry" />
        </mxCell>
        <mxCell id="enaOvLACo1BJ830dcgLM-9" value="- hotelName : String" style="text;strokeColor=none;fillColor=none;align=left;verticalAlign=top;spacingLeft=4;spacingRight=4;overflow=hidden;rotatable=0;points=[[0,0.5],[1,0.5]];portConstraint=eastwest;whiteSpace=wrap;html=1;" parent="enaOvLACo1BJ830dcgLM-8" vertex="1">
          <mxGeometry y="26" width="195" height="26" as="geometry" />
        </mxCell>
        <mxCell id="enaOvLACo1BJ830dcgLM-12" value="- numberOfRooms : int" style="text;strokeColor=none;fillColor=none;align=left;verticalAlign=top;spacingLeft=4;spacingRight=4;overflow=hidden;rotatable=0;points=[[0,0.5],[1,0.5]];portConstraint=eastwest;whiteSpace=wrap;html=1;" parent="enaOvLACo1BJ830dcgLM-8" vertex="1">
          <mxGeometry y="52" width="195" height="28" as="geometry" />
        </mxCell>
        <mxCell id="enaOvLACo1BJ830dcgLM-13" value="- roomList : Room[]" style="text;strokeColor=none;fillColor=none;align=left;verticalAlign=top;spacingLeft=4;spacingRight=4;overflow=hidden;rotatable=0;points=[[0,0.5],[1,0.5]];portConstraint=eastwest;whiteSpace=wrap;html=1;" parent="enaOvLACo1BJ830dcgLM-8" vertex="1">
          <mxGeometry y="80" width="195" height="30" as="geometry" />
        </mxCell>
        <mxCell id="enaOvLACo1BJ830dcgLM-15" value="- reservationList : Reservation[]" style="text;strokeColor=none;fillColor=none;align=left;verticalAlign=top;spacingLeft=4;spacingRight=4;overflow=hidden;rotatable=0;points=[[0,0.5],[1,0.5]];portConstraint=eastwest;whiteSpace=wrap;html=1;" parent="enaOvLACo1BJ830dcgLM-8" vertex="1">
          <mxGeometry y="110" width="195" height="30" as="geometry" />
        </mxCell>
        <mxCell id="JdBaqJGjskKO-6t4WOm8-1" value="- monthDateList : MonthDate[]" style="text;strokeColor=none;fillColor=none;align=left;verticalAlign=top;spacingLeft=4;spacingRight=4;overflow=hidden;rotatable=0;points=[[0,0.5],[1,0.5]];portConstraint=eastwest;whiteSpace=wrap;html=1;" parent="enaOvLACo1BJ830dcgLM-8" vertex="1">
          <mxGeometry y="140" width="195" height="26" as="geometry" />
        </mxCell>
        <mxCell id="enaOvLACo1BJ830dcgLM-10" value="" style="line;strokeWidth=1;fillColor=none;align=left;verticalAlign=middle;spacingTop=-1;spacingLeft=3;spacingRight=3;rotatable=0;labelPosition=right;points=[];portConstraint=eastwest;strokeColor=inherit;" parent="enaOvLACo1BJ830dcgLM-8" vertex="1">
          <mxGeometry y="166" width="195" height="8" as="geometry" />
        </mxCell>
        <mxCell id="enaOvLACo1BJ830dcgLM-24" value="+ Hotel(numberofRooms : int, hotelName : String)" style="text;strokeColor=none;fillColor=none;align=left;verticalAlign=top;spacingLeft=4;spacingRight=4;overflow=hidden;rotatable=0;points=[[0,0.5],[1,0.5]];portConstraint=eastwest;whiteSpace=wrap;html=1;" parent="enaOvLACo1BJ830dcgLM-8" vertex="1">
          <mxGeometry y="174" width="195" height="40" as="geometry" />
        </mxCell>
        <mxCell id="enaOvLACo1BJ830dcgLM-33" value="+ Hotel(hotelName : String)" style="text;strokeColor=none;fillColor=none;align=left;verticalAlign=top;spacingLeft=4;spacingRight=4;overflow=hidden;rotatable=0;points=[[0,0.5],[1,0.5]];portConstraint=eastwest;whiteSpace=wrap;html=1;" parent="enaOvLACo1BJ830dcgLM-8" vertex="1">
          <mxGeometry y="214" width="195" height="26" as="geometry" />
        </mxCell>
        <mxCell id="enaOvLACo1BJ830dcgLM-32" value="+ getMonthlyEarnings() : double" style="text;strokeColor=none;fillColor=none;align=left;verticalAlign=top;spacingLeft=4;spacingRight=4;overflow=hidden;rotatable=0;points=[[0,0.5],[1,0.5]];portConstraint=eastwest;whiteSpace=wrap;html=1;" parent="enaOvLACo1BJ830dcgLM-8" vertex="1">
          <mxGeometry y="240" width="195" height="34" as="geometry" />
        </mxCell>
        <mxCell id="xqPwADUR2X_ACAqCUkij-2" value="+ getRoomList(): Room[]" style="text;strokeColor=none;fillColor=none;align=left;verticalAlign=top;spacingLeft=4;spacingRight=4;overflow=hidden;rotatable=0;points=[[0,0.5],[1,0.5]];portConstraint=eastwest;whiteSpace=wrap;html=1;" parent="enaOvLACo1BJ830dcgLM-8" vertex="1">
          <mxGeometry y="274" width="195" height="26" as="geometry" />
        </mxCell>
        <mxCell id="xqPwADUR2X_ACAqCUkij-1" value="+ getReservationList(): Reservation[]" style="text;strokeColor=none;fillColor=none;align=left;verticalAlign=top;spacingLeft=4;spacingRight=4;overflow=hidden;rotatable=0;points=[[0,0.5],[1,0.5]];portConstraint=eastwest;whiteSpace=wrap;html=1;" parent="enaOvLACo1BJ830dcgLM-8" vertex="1">
          <mxGeometry y="300" width="195" height="42" as="geometry" />
        </mxCell>
        <mxCell id="Av6QTl00VI_5EAd0nDwh-1" value="+ getMonthDateList(): MonthDate[]" style="text;strokeColor=none;fillColor=none;align=left;verticalAlign=top;spacingLeft=4;spacingRight=4;overflow=hidden;rotatable=0;points=[[0,0.5],[1,0.5]];portConstraint=eastwest;whiteSpace=wrap;html=1;" parent="enaOvLACo1BJ830dcgLM-8" vertex="1">
          <mxGeometry y="342" width="195" height="26" as="geometry" />
        </mxCell>
        <mxCell id="xqPwADUR2X_ACAqCUkij-4" value="+ setNumberOfRooms(roomCount : int): void" style="text;strokeColor=none;fillColor=none;align=left;verticalAlign=top;spacingLeft=4;spacingRight=4;overflow=hidden;rotatable=0;points=[[0,0.5],[1,0.5]];portConstraint=eastwest;whiteSpace=wrap;html=1;" parent="enaOvLACo1BJ830dcgLM-8" vertex="1">
          <mxGeometry y="368" width="195" height="44" as="geometry" />
        </mxCell>
        <mxCell id="xqPwADUR2X_ACAqCUkij-3" value="+ setNewPrice(newPrice : double): boolean" style="text;strokeColor=none;fillColor=none;align=left;verticalAlign=top;spacingLeft=4;spacingRight=4;overflow=hidden;rotatable=0;points=[[0,0.5],[1,0.5]];portConstraint=eastwest;whiteSpace=wrap;html=1;" parent="enaOvLACo1BJ830dcgLM-8" vertex="1">
          <mxGeometry y="412" width="195" height="40" as="geometry" />
        </mxCell>
        <mxCell id="6VVVKH3dxH4yMX3Iy2eF-1" value="+ getHotelName(): String" style="text;strokeColor=none;fillColor=none;align=left;verticalAlign=top;spacingLeft=4;spacingRight=4;overflow=hidden;rotatable=0;points=[[0,0.5],[1,0.5]];portConstraint=eastwest;whiteSpace=wrap;html=1;" parent="enaOvLACo1BJ830dcgLM-8" vertex="1">
          <mxGeometry y="452" width="195" height="26" as="geometry" />
        </mxCell>
        <mxCell id="enaOvLACo1BJ830dcgLM-25" value="+ setHotelName(newName : String) : boolean" style="text;strokeColor=none;fillColor=none;align=left;verticalAlign=top;spacingLeft=4;spacingRight=4;overflow=hidden;rotatable=0;points=[[0,0.5],[1,0.5]];portConstraint=eastwest;whiteSpace=wrap;html=1;" parent="enaOvLACo1BJ830dcgLM-8" vertex="1">
          <mxGeometry y="478" width="195" height="38" as="geometry" />
        </mxCell>
        <mxCell id="reC9IUW4d23R3Ghy_KCw-2" value="" style="endArrow=diamond;endFill=0;endSize=24;html=1;rounded=0;exitX=-0.022;exitY=0.761;exitDx=0;exitDy=0;exitPerimeter=0;" parent="1" source="enaOvLACo1BJ830dcgLM-56" edge="1">
          <mxGeometry width="160" relative="1" as="geometry">
            <mxPoint x="480" y="350" as="sourcePoint" />
            <mxPoint x="520" y="709" as="targetPoint" />
          </mxGeometry>
        </mxCell>
        <mxCell id="k6xVh6LapcGTRqiBA9JY-1" value="" style="endArrow=diamond;endFill=1;endSize=24;html=1;rounded=0;exitX=0;exitY=0.5;exitDx=0;exitDy=0;" parent="1" source="enaOvLACo1BJ830dcgLM-54" edge="1">
          <mxGeometry width="160" relative="1" as="geometry">
            <mxPoint x="410" y="310" as="sourcePoint" />
            <mxPoint x="210" y="470" as="targetPoint" />
          </mxGeometry>
        </mxCell>
        <mxCell id="k6xVh6LapcGTRqiBA9JY-5" value="" style="endArrow=diamond;endFill=1;endSize=24;html=1;rounded=0;" parent="1" edge="1">
          <mxGeometry width="160" relative="1" as="geometry">
            <mxPoint x="335" y="650" as="sourcePoint" />
            <mxPoint x="210" y="650" as="targetPoint" />
          </mxGeometry>
        </mxCell>
        <mxCell id="k6xVh6LapcGTRqiBA9JY-6" value="&lt;font style=&quot;font-size: 17px;&quot;&gt;1...50&lt;/font&gt;" style="text;html=1;align=center;verticalAlign=middle;resizable=0;points=[];autosize=1;strokeColor=none;fillColor=none;" parent="1" vertex="1">
          <mxGeometry x="570" y="440" width="70" height="30" as="geometry" />
        </mxCell>
        <mxCell id="k6xVh6LapcGTRqiBA9JY-7" value="&lt;font style=&quot;font-size: 17px;&quot;&gt;*&lt;/font&gt;" style="text;html=1;align=center;verticalAlign=middle;resizable=0;points=[];autosize=1;strokeColor=none;fillColor=none;" parent="1" vertex="1">
          <mxGeometry x="305" y="620" width="30" height="30" as="geometry" />
        </mxCell>
        <mxCell id="SQJ-kHOHBMKAbNSt3r6T-1" value="&lt;font style=&quot;font-size: 17px;&quot;&gt;*&lt;/font&gt;" style="text;html=1;align=center;verticalAlign=middle;resizable=0;points=[];autosize=1;strokeColor=none;fillColor=none;" parent="1" vertex="1">
          <mxGeometry x="515" y="660" width="30" height="30" as="geometry" />
        </mxCell>
        <mxCell id="TzPAuGzWRh46qyOCeVTI-1" value="DiscountTag" style="swimlane;fontStyle=1;align=center;verticalAlign=top;childLayout=stackLayout;horizontal=1;startSize=26;horizontalStack=0;resizeParent=1;resizeParentMax=0;resizeLast=0;collapsible=1;marginBottom=0;whiteSpace=wrap;html=1;" parent="1" vertex="1">
          <mxGeometry x="335" y="1120" width="180" height="286" as="geometry" />
        </mxCell>
        <mxCell id="TzPAuGzWRh46qyOCeVTI-2" value="- iWorkHereCode : boolean&amp;nbsp;" style="text;strokeColor=none;fillColor=none;align=left;verticalAlign=top;spacingLeft=4;spacingRight=4;overflow=hidden;rotatable=0;points=[[0,0.5],[1,0.5]];portConstraint=eastwest;whiteSpace=wrap;html=1;" parent="TzPAuGzWRh46qyOCeVTI-1" vertex="1">
          <mxGeometry y="26" width="180" height="26" as="geometry" />
        </mxCell>
        <mxCell id="TzPAuGzWRh46qyOCeVTI-5" value="- stay4Get1Code : boolean" style="text;strokeColor=none;fillColor=none;align=left;verticalAlign=top;spacingLeft=4;spacingRight=4;overflow=hidden;rotatable=0;points=[[0,0.5],[1,0.5]];portConstraint=eastwest;whiteSpace=wrap;html=1;" parent="TzPAuGzWRh46qyOCeVTI-1" vertex="1">
          <mxGeometry y="52" width="180" height="26" as="geometry" />
        </mxCell>
        <mxCell id="TzPAuGzWRh46qyOCeVTI-6" value="- paydayCode : boolean" style="text;strokeColor=none;fillColor=none;align=left;verticalAlign=top;spacingLeft=4;spacingRight=4;overflow=hidden;rotatable=0;points=[[0,0.5],[1,0.5]];portConstraint=eastwest;whiteSpace=wrap;html=1;" parent="TzPAuGzWRh46qyOCeVTI-1" vertex="1">
          <mxGeometry y="78" width="180" height="26" as="geometry" />
        </mxCell>
        <mxCell id="TzPAuGzWRh46qyOCeVTI-3" value="" style="line;strokeWidth=1;fillColor=none;align=left;verticalAlign=middle;spacingTop=-1;spacingLeft=3;spacingRight=3;rotatable=0;labelPosition=right;points=[];portConstraint=eastwest;strokeColor=inherit;" parent="TzPAuGzWRh46qyOCeVTI-1" vertex="1">
          <mxGeometry y="104" width="180" height="8" as="geometry" />
        </mxCell>
        <mxCell id="TzPAuGzWRh46qyOCeVTI-4" value="+ DiscountTag(iWorkHereCode : boolean, stay4Get1Code : boolean, paydayCode : boolean)" style="text;strokeColor=none;fillColor=none;align=left;verticalAlign=top;spacingLeft=4;spacingRight=4;overflow=hidden;rotatable=0;points=[[0,0.5],[1,0.5]];portConstraint=eastwest;whiteSpace=wrap;html=1;" parent="TzPAuGzWRh46qyOCeVTI-1" vertex="1">
          <mxGeometry y="112" width="180" height="68" as="geometry" />
        </mxCell>
        <mxCell id="TzPAuGzWRh46qyOCeVTI-8" value="+ getIWorkHereCode() : boolean" style="text;strokeColor=none;fillColor=none;align=left;verticalAlign=top;spacingLeft=4;spacingRight=4;overflow=hidden;rotatable=0;points=[[0,0.5],[1,0.5]];portConstraint=eastwest;whiteSpace=wrap;html=1;" parent="TzPAuGzWRh46qyOCeVTI-1" vertex="1">
          <mxGeometry y="180" width="180" height="40" as="geometry" />
        </mxCell>
        <mxCell id="TzPAuGzWRh46qyOCeVTI-7" value="+ getStay4Get1Code() : boolean" style="text;strokeColor=none;fillColor=none;align=left;verticalAlign=top;spacingLeft=4;spacingRight=4;overflow=hidden;rotatable=0;points=[[0,0.5],[1,0.5]];portConstraint=eastwest;whiteSpace=wrap;html=1;" parent="TzPAuGzWRh46qyOCeVTI-1" vertex="1">
          <mxGeometry y="220" width="180" height="40" as="geometry" />
        </mxCell>
        <mxCell id="TzPAuGzWRh46qyOCeVTI-9" value="+ getPaydayCode() : boolean" style="text;strokeColor=none;fillColor=none;align=left;verticalAlign=top;spacingLeft=4;spacingRight=4;overflow=hidden;rotatable=0;points=[[0,0.5],[1,0.5]];portConstraint=eastwest;whiteSpace=wrap;html=1;" parent="TzPAuGzWRh46qyOCeVTI-1" vertex="1">
          <mxGeometry y="260" width="180" height="26" as="geometry" />
        </mxCell>
        <mxCell id="TzPAuGzWRh46qyOCeVTI-12" value="ExecutiveRoom" style="swimlane;fontStyle=1;align=center;verticalAlign=top;childLayout=stackLayout;horizontal=1;startSize=26;horizontalStack=0;resizeParent=1;resizeParentMax=0;resizeLast=0;collapsible=1;marginBottom=0;whiteSpace=wrap;html=1;" parent="1" vertex="1">
          <mxGeometry x="900" y="690" width="190" height="112" as="geometry" />
        </mxCell>
        <mxCell id="TzPAuGzWRh46qyOCeVTI-14" value="" style="line;strokeWidth=1;fillColor=none;align=left;verticalAlign=middle;spacingTop=-1;spacingLeft=3;spacingRight=3;rotatable=0;labelPosition=right;points=[];portConstraint=eastwest;strokeColor=inherit;" parent="TzPAuGzWRh46qyOCeVTI-12" vertex="1">
          <mxGeometry y="26" width="190" height="8" as="geometry" />
        </mxCell>
        <mxCell id="-02-Iw9RLDiKDgKSyEha-6" value="+ ExecutiveRoom(basePrice : double, number : int, availability : boolean)" style="text;strokeColor=none;fillColor=none;align=left;verticalAlign=top;spacingLeft=4;spacingRight=4;overflow=hidden;rotatable=0;points=[[0,0.5],[1,0.5]];portConstraint=eastwest;whiteSpace=wrap;html=1;" parent="TzPAuGzWRh46qyOCeVTI-12" vertex="1">
          <mxGeometry y="34" width="190" height="52" as="geometry" />
        </mxCell>
        <mxCell id="bNKDzYLvSJ5f6Y4SGBDH-2" value="+ getBasePrice() : double" style="text;strokeColor=none;fillColor=none;align=left;verticalAlign=top;spacingLeft=4;spacingRight=4;overflow=hidden;rotatable=0;points=[[0,0.5],[1,0.5]];portConstraint=eastwest;whiteSpace=wrap;html=1;" parent="TzPAuGzWRh46qyOCeVTI-12" vertex="1">
          <mxGeometry y="86" width="190" height="26" as="geometry" />
        </mxCell>
        <mxCell id="TzPAuGzWRh46qyOCeVTI-16" value="DeluxeRoom" style="swimlane;fontStyle=1;align=center;verticalAlign=top;childLayout=stackLayout;horizontal=1;startSize=26;horizontalStack=0;resizeParent=1;resizeParentMax=0;resizeLast=0;collapsible=1;marginBottom=0;whiteSpace=wrap;html=1;" parent="1" vertex="1">
          <mxGeometry x="900" y="380" width="190" height="112" as="geometry" />
        </mxCell>
        <mxCell id="TzPAuGzWRh46qyOCeVTI-18" value="" style="line;strokeWidth=1;fillColor=none;align=left;verticalAlign=middle;spacingTop=-1;spacingLeft=3;spacingRight=3;rotatable=0;labelPosition=right;points=[];portConstraint=eastwest;strokeColor=inherit;" parent="TzPAuGzWRh46qyOCeVTI-16" vertex="1">
          <mxGeometry y="26" width="190" height="8" as="geometry" />
        </mxCell>
        <mxCell id="-02-Iw9RLDiKDgKSyEha-5" value="+ DeluxeRoom(basePrice : double, number : int, availability : boolean)" style="text;strokeColor=none;fillColor=none;align=left;verticalAlign=top;spacingLeft=4;spacingRight=4;overflow=hidden;rotatable=0;points=[[0,0.5],[1,0.5]];portConstraint=eastwest;whiteSpace=wrap;html=1;" parent="TzPAuGzWRh46qyOCeVTI-16" vertex="1">
          <mxGeometry y="34" width="190" height="52" as="geometry" />
        </mxCell>
        <mxCell id="bNKDzYLvSJ5f6Y4SGBDH-1" value="+ getBasePrice() : double" style="text;strokeColor=none;fillColor=none;align=left;verticalAlign=top;spacingLeft=4;spacingRight=4;overflow=hidden;rotatable=0;points=[[0,0.5],[1,0.5]];portConstraint=eastwest;whiteSpace=wrap;html=1;" parent="TzPAuGzWRh46qyOCeVTI-16" vertex="1">
          <mxGeometry y="86" width="190" height="26" as="geometry" />
        </mxCell>
        <mxCell id="js2o4f2XwU7Y7SOhlIUR-1" value="MonthDate" style="swimlane;fontStyle=1;align=center;verticalAlign=top;childLayout=stackLayout;horizontal=1;startSize=26;horizontalStack=0;resizeParent=1;resizeParentMax=0;resizeLast=0;collapsible=1;marginBottom=0;whiteSpace=wrap;html=1;" parent="1" vertex="1">
          <mxGeometry x="15" y="1" width="160" height="206" as="geometry" />
        </mxCell>
        <mxCell id="js2o4f2XwU7Y7SOhlIUR-2" value="- date : int" style="text;strokeColor=none;fillColor=none;align=left;verticalAlign=top;spacingLeft=4;spacingRight=4;overflow=hidden;rotatable=0;points=[[0,0.5],[1,0.5]];portConstraint=eastwest;whiteSpace=wrap;html=1;" parent="js2o4f2XwU7Y7SOhlIUR-1" vertex="1">
          <mxGeometry y="26" width="160" height="26" as="geometry" />
        </mxCell>
        <mxCell id="js2o4f2XwU7Y7SOhlIUR-5" value="- rate : double" style="text;strokeColor=none;fillColor=none;align=left;verticalAlign=top;spacingLeft=4;spacingRight=4;overflow=hidden;rotatable=0;points=[[0,0.5],[1,0.5]];portConstraint=eastwest;whiteSpace=wrap;html=1;" parent="js2o4f2XwU7Y7SOhlIUR-1" vertex="1">
          <mxGeometry y="52" width="160" height="26" as="geometry" />
        </mxCell>
        <mxCell id="js2o4f2XwU7Y7SOhlIUR-3" value="" style="line;strokeWidth=1;fillColor=none;align=left;verticalAlign=middle;spacingTop=-1;spacingLeft=3;spacingRight=3;rotatable=0;labelPosition=right;points=[];portConstraint=eastwest;strokeColor=inherit;" parent="js2o4f2XwU7Y7SOhlIUR-1" vertex="1">
          <mxGeometry y="78" width="160" height="8" as="geometry" />
        </mxCell>
        <mxCell id="js2o4f2XwU7Y7SOhlIUR-6" value="+ MonthDate(date : int)" style="text;strokeColor=none;fillColor=none;align=left;verticalAlign=top;spacingLeft=4;spacingRight=4;overflow=hidden;rotatable=0;points=[[0,0.5],[1,0.5]];portConstraint=eastwest;whiteSpace=wrap;html=1;" parent="js2o4f2XwU7Y7SOhlIUR-1" vertex="1">
          <mxGeometry y="86" width="160" height="26" as="geometry" />
        </mxCell>
        <mxCell id="js2o4f2XwU7Y7SOhlIUR-4" value="+ getRate() : double" style="text;strokeColor=none;fillColor=none;align=left;verticalAlign=top;spacingLeft=4;spacingRight=4;overflow=hidden;rotatable=0;points=[[0,0.5],[1,0.5]];portConstraint=eastwest;whiteSpace=wrap;html=1;" parent="js2o4f2XwU7Y7SOhlIUR-1" vertex="1">
          <mxGeometry y="112" width="160" height="26" as="geometry" />
        </mxCell>
        <mxCell id="-02-Iw9RLDiKDgKSyEha-7" value="+ setRate(rate : double) : void&amp;nbsp;" style="text;strokeColor=none;fillColor=none;align=left;verticalAlign=top;spacingLeft=4;spacingRight=4;overflow=hidden;rotatable=0;points=[[0,0.5],[1,0.5]];portConstraint=eastwest;whiteSpace=wrap;html=1;" parent="js2o4f2XwU7Y7SOhlIUR-1" vertex="1">
          <mxGeometry y="138" width="160" height="42" as="geometry" />
        </mxCell>
        <mxCell id="-02-Iw9RLDiKDgKSyEha-8" value="+ getDate() : int" style="text;strokeColor=none;fillColor=none;align=left;verticalAlign=top;spacingLeft=4;spacingRight=4;overflow=hidden;rotatable=0;points=[[0,0.5],[1,0.5]];portConstraint=eastwest;whiteSpace=wrap;html=1;" parent="js2o4f2XwU7Y7SOhlIUR-1" vertex="1">
          <mxGeometry y="180" width="160" height="26" as="geometry" />
        </mxCell>
        <mxCell id="-02-Iw9RLDiKDgKSyEha-1" style="edgeStyle=orthogonalEdgeStyle;rounded=0;orthogonalLoop=1;jettySize=auto;html=1;exitX=0;exitY=0.5;exitDx=0;exitDy=0;entryX=1;entryY=0.5;entryDx=0;entryDy=0;endArrow=block;endFill=0;" parent="1" target="YjcfGOqxXFkQnm6U6_Sq-29" edge="1">
          <mxGeometry relative="1" as="geometry">
            <mxPoint x="900" y="423" as="sourcePoint" />
          </mxGeometry>
        </mxCell>
        <mxCell id="-02-Iw9RLDiKDgKSyEha-2" style="edgeStyle=orthogonalEdgeStyle;rounded=0;orthogonalLoop=1;jettySize=auto;html=1;exitX=0;exitY=0.5;exitDx=0;exitDy=0;entryX=1;entryY=0.5;entryDx=0;entryDy=0;endArrow=block;endFill=0;" parent="1" target="YjcfGOqxXFkQnm6U6_Sq-29" edge="1">
          <mxGeometry relative="1" as="geometry">
            <mxPoint x="900" y="733" as="sourcePoint" />
          </mxGeometry>
        </mxCell>
        <mxCell id="-02-Iw9RLDiKDgKSyEha-4" value="" style="endArrow=diamond;endFill=1;endSize=24;html=1;rounded=0;exitX=0.5;exitY=0;exitDx=0;exitDy=0;" parent="1" source="TzPAuGzWRh46qyOCeVTI-1" target="fT-wLqckhPg0DEHDg7Vk-1" edge="1">
          <mxGeometry width="160" relative="1" as="geometry">
            <mxPoint x="400" y="1010" as="sourcePoint" />
            <mxPoint x="560" y="1010" as="targetPoint" />
          </mxGeometry>
        </mxCell>
        <mxCell id="-02-Iw9RLDiKDgKSyEha-17" value="&lt;font style=&quot;font-size: 14px;&quot;&gt;31&lt;/font&gt;" style="text;html=1;align=center;verticalAlign=middle;resizable=0;points=[];autosize=1;strokeColor=none;fillColor=none;" parent="1" vertex="1">
          <mxGeometry x="20" y="207" width="40" height="30" as="geometry" />
        </mxCell>
        <mxCell id="JdBaqJGjskKO-6t4WOm8-2" value="" style="endArrow=diamond;endFill=1;endSize=24;html=1;rounded=0;exitX=0.275;exitY=1.231;exitDx=0;exitDy=0;exitPerimeter=0;entryX=0.25;entryY=0;entryDx=0;entryDy=0;" parent="1" source="-02-Iw9RLDiKDgKSyEha-8" target="enaOvLACo1BJ830dcgLM-8" edge="1">
          <mxGeometry width="160" relative="1" as="geometry">
            <mxPoint x="20" y="240" as="sourcePoint" />
            <mxPoint x="180" y="240" as="targetPoint" />
          </mxGeometry>
        </mxCell>
        <mxCell id="edOyqLOfU0xYlE65CssY-1" value="uses" style="text;html=1;align=center;verticalAlign=middle;resizable=0;points=[];autosize=1;strokeColor=none;fillColor=none;" vertex="1" parent="1">
          <mxGeometry x="185" y="98" width="50" height="30" as="geometry" />
        </mxCell>
        <mxCell id="edOyqLOfU0xYlE65CssY-2" value="*" style="text;html=1;align=center;verticalAlign=middle;resizable=0;points=[];autosize=1;strokeColor=none;fillColor=none;" vertex="1" parent="1">
          <mxGeometry x="390" y="1030" width="30" height="30" as="geometry" />
        </mxCell>
      </root>
    </mxGraphModel>
  </diagram>
</mxfile>
